<svg xmlns="http://www.w3.org/2000/svg" xmlns:xlink="http://www.w3.org/1999/xlink" viewBox="0 0 536.45 110.37"><defs><style>.cls-1{fill:#fff;}.cls-2{mask:url(#mask);}.cls-3{filter:url(#luminosity-noclip);}</style><filter id="luminosity-noclip" x="0" y="-8291.01" width="110.34" height="32766" filterUnits="userSpaceOnUse" color-interpolation-filters="sRGB"><feFlood flood-color="#fff" result="bg"/><feBlend in="SourceGraphic" in2="bg"/></filter><mask id="mask" x="0" y="-8291.01" width="110.34" height="32766" maskUnits="userSpaceOnUse"><g class="cls-3"/></mask></defs><g id="Layer_2" data-name="Layer 2"><g id="Layer_2-2" data-name="Layer 2"><path class="cls-1" d="M469.81,59c-.17,11.84-7.63,19.44-18.85,19.2-10.41-.23-17.34-8.16-17.22-19.71.12-11.7,7.6-19.21,18.95-19C463.36,39.66,470,47.22,469.81,59Zm-27.11-.51a16.67,16.67,0,0,0,1,6.34c1.42,3.94,4,6.58,8.38,6.47,4.14-.1,6.49-2.69,7.81-6.49a19.79,19.79,0,0,0,.73-9.31c-.75-5.56-4.22-9.29-8.57-9.44s-8.25,3.73-9.13,9.46C442.74,56.53,442.76,57.53,442.7,58.52Z"/><path class="cls-1" d="M169.34,57.07c4.77,3.1,7.77,6.44,6.32,11.88-1.51,5.64-5.89,7.73-11.09,8.51-15.76,2.37-16.42,1.79-16.42-13.68,0-6.46.12-12.93-.05-19.39-.08-3.09.85-4.71,4.13-4.63,4.14.09,8.31-.27,12.4.19s8,1.88,9.39,6.26S173.81,54.35,169.34,57.07Zm-12.88,8.66c-.07,3.21-.72,6.31,3.92,5.88,3.5-.32,6.27-1.4,6.58-5.3.26-3.15-3.34-5.57-7.51-5.55S156.87,64,156.46,65.73Zm0-16.17c.09,2.67-.58,5.4,3.21,5.16,3-.18,6-.69,6.25-4.29s-2.66-4.42-5.72-4.68C156.87,45.47,156.09,47.18,156.42,49.56Z"/><path class="cls-1" d="M476.51,58.84c0-4.82.15-9.65-.05-14.46-.13-3.15,1-4.64,4.19-4.62,5,0,10-.73,14.85.75,8.4,2.53,10.78,11,4.55,17-2.09,2-1.93,3-.32,5.09,2.78,3.66,2.9,8.41,4.29,12.66.33,1,.38,2.24-1,2.14-2.59-.2-5.92,1.73-7.52-1.77A52.32,52.32,0,0,1,493.19,68c-.66-2.36-1.77-4.33-4.36-5-2.31-.57-4-.19-4,2.7,0,2.66-.18,5.33,0,8,.23,3.18-1.26,3.92-4.14,3.91s-4.34-.61-4.22-3.85C476.66,68.82,476.52,63.83,476.51,58.84Zm8.28-7.65c.07,2.74-.78,5.86,3.64,5.41,3.49-.35,6.25-1.63,6.2-5.57s-3.05-5.08-6.47-5.21C483.75,45.65,485,49,484.79,51.19Z"/><path class="cls-1" d="M264.29,54.84c2.74-4,5.71-8,8.18-12.17,2.63-4.5,6.67-2.81,10.22-2.64,1.92.09.73,1.79.13,2.61a83.85,83.85,0,0,1-7,9c-3,3.12-2.68,5.73-.42,9.1,3.47,5.16,6.49,10.63,9.83,16.19-9.12,1.49-9.12,1.48-12.93-5.32-1.37-2.46-2.9-4.85-4.15-7.37-1.6-3.2-2.89-1.8-4,.2-1.65,2.93-.85,6.2-.8,9.29s-1.31,3.91-4.18,3.9-4.27-.61-4.22-3.84q.23-15.2,0-30.39c-.05-3.37,1.73-3.69,4.38-3.7s4.09.63,4,3.6c-.15,3.73,0,7.47,0,11.21Z"/><path class="cls-1" d="M250.31,77c-9.2,1.43-9.19,1.42-13-5.36-1.38-2.46-2.9-4.85-4.16-7.37-1.63-3.25-2.92-1.71-4,.25-1.64,2.93-.85,6.19-.79,9.29s-1.37,3.87-4.21,3.86S219.91,77,220,73.78q.22-15.2,0-30.38c-.05-3.4,1.78-3.66,4.4-3.68s4.07.68,3.95,3.63a37.26,37.26,0,0,0,1,11.49c2.75-4.06,5.48-8.12,8.26-12.15,1.71-2.48,7.63-4,10.17-2.79,1.85.9.67,2,.08,2.76-1.65,2.29-3.49,4.43-5.15,6.71-5.92,8.13-5.87,4.86-.88,13.47C244.48,67.41,247.27,71.9,250.31,77Z"/><path class="cls-1" d="M306.2,39.6c3.56-1,5.16,1.61,6.32,5.72,2.61,9.27,5.68,18.4,8.43,27.63.42,1.42,2.35,3.91-.59,4.35-2.44.36-5.68,1.85-7.59-1.45a7.85,7.85,0,0,1-.95-2.82c-.58-4.71-3.49-5.37-7.7-5.46s-5.24,2.18-6.07,5.5c-1.07,4.32-3.72,5.55-8.05,4.5-2.16-.52-1.53-1.76-1.16-3,3.25-10.64,6.64-21.23,9.73-31.92C299.69,38.79,302.54,40,306.2,39.6Zm-1.5,6.95c-1.21,4.67-1.89,8.06-3,11.3-1,3-.15,4,2.83,3.75,1.3-.13,2.6-.2,4.32-.33Z"/><path class="cls-1" d="M209.77,77.53c-3.84,1-4.92-1.36-5.79-4.4a7.85,7.85,0,0,0-11-5.17c-2.46,1.05-2,3.61-2.69,5.54a6.33,6.33,0,0,1-8.45,4c-1.76-.69-1.07-1.82-.77-2.82,3.29-10.8,6.68-21.57,9.91-32.39,1.08-3.6,3.91-2.44,6.17-2.45,2.44,0,5.49-1.17,6.63,2.58q4.89,15.95,9.89,31.87C215,78.66,211.64,77.24,209.77,77.53ZM196.88,46.75c-1.22,4.63-2,8.13-3.08,11.56-.75,2.43-.1,3.22,2.43,3.33,3.41.16,5.56-.17,3.85-4.46C198.88,54.16,198.14,51,196.88,46.75Z"/><path class="cls-1" d="M340.78,58.42c0-4.81.16-9.64-.06-14.45-.14-3.31,1.17-4.37,4.36-4.26,5.14.19,10.29.14,15.44,0,2.65-.06,3.39,1.11,3.41,3.6s-1,3.57-3.55,3.44c-2.32-.11-4.66.12-7,0-3.18-.22-4.41,1-4.44,4.27,0,3.46,1.81,3.74,4.42,3.61,2-.1,4,.07,6,0,2.39-.12,3.67.55,3.7,3.3s-1,4-3.77,3.73c-1.65-.13-3.33.1-5,0-3.47-.29-5.49.29-5.43,4.69s2.12,4.52,5.28,4.33c2.32-.13,4.65.07,7,0s3.61.68,3.65,3.36c0,2.88-1.1,3.77-3.84,3.7-5.47-.14-11-.15-16.44,0-2.78.07-3.85-1-3.78-3.75C340.88,68.72,340.78,63.57,340.78,58.42Z"/><path class="cls-1" d="M402.66,58.59c0-4.82.12-9.64-.05-14.45-.1-2.89.86-4.35,3.88-4.38,4.47,0,9-.6,13.4.36,6.14,1.34,9.5,5.22,9.71,11s-2.78,11.14-8.51,11.85c-7.85,1-11.94,3.47-10.3,12.1.58,3.08-2.39,2.4-4.25,2.53-2.18.15-4-.11-3.9-3,.11-5.31,0-10.62,0-15.93Zm8.22-6.82c.61,2.19-1.58,6.07,3.47,5.82,3.79-.19,6.43-1.65,6.49-5.86.07-4.42-3-5.57-6.56-5.74C409.85,45.78,411.22,49.26,410.88,51.77Z"/><path class="cls-1" d="M385.12,39.33c2,.22,4,.36,5.91.68,2.23.37,3.65,1.28,2.78,4-.71,2.23-1.05,3.86-4.28,3.07s-8.22-2.46-9.53,2.06,3.94,4.85,6.88,6.19c7.09,3.23,9.86,7.2,8.85,13.2-.88,5.27-5.43,8.77-12.43,9.58a25.8,25.8,0,0,1-8.88-.72c-2.53-.6-4.69-1.16-3.66-4.88.93-3.39,2.62-3.1,5.14-2.29a15.61,15.61,0,0,0,7.38.48c1.75-.28,3.22-1,3.62-2.91.44-2.1-.63-3.54-2.42-4.41-1.94-.94-4-1.67-5.92-2.59-6.27-3-8.7-6.92-7.68-12.39.95-5.11,5.8-8.65,12.23-8.91.67,0,1.33,0,2,0Z"/><path class="cls-1" d="M517.57,62.6v-7c0-7.42,0-7.55-7.13-8.3-2.87-.3-3-1.9-3-4.06s.5-3.52,3-3.51c7.62.05,15.25.07,22.88,0,2.9,0,3,1.7,3.12,3.9.08,2.46-.71,3.52-3.35,3.69-6.87.43-6.86.56-6.86,7.7,0,6.3-.13,12.61,0,18.9.09,3.37-1.68,3.73-4.36,3.69s-4.59-.07-4.38-3.59C517.75,70.24,517.58,66.41,517.57,62.6Z"/><g id="Layer_1-2" data-name="Layer 1"><g class="cls-2"><path class="cls-1" d="M12.56,92.51a2,2,0,0,1,1.26-.17c6.58,0,13.16,0,19.74,0,1,0,1.32-.32,1.25-1.3s0-2.26,0-3.4c0-.62-.22-.83-.83-.83-1.68,0-3.36,0-5,0-5.23-.06-10.45-.13-15.67-.16-.87,0-1.29-.2-1.22-1.16.29-4,.06-8,.15-12.06,0-1.44,0-1.44,1.41-1.44H31c1.77,0,1.55.15,1.56-1.61,0-1.13,0-2.27,0-3.4,0-.76-.23-1-1-1-3.69-.21-7.38-.09-11.07-.2-2.52-.07-5-.13-7.56-.14-.83,0-1-.3-1-1.1,0-3.44,0-6.88,0-10.31,0-.89.28-1.1,1.12-1.1,6.8,0,13.6,0,20.4,0,1.06,0,1.4-.28,1.33-1.34-.09-1.46,0-2.93,0-4.39,0-.61-.11-.92-.84-.92-7.86,0-15.72,0-23.57.09-3.15,0-6.29,0-9.43.09-.92,0-1.09-.25-.91-1.14A57.81,57.81,0,0,1,12.9,19.18C22.14,8.32,34.12,2.53,48.11.58a54.4,54.4,0,0,1,38.82,8.9c9.86,6.56,16.16,15.89,20.08,27a51.69,51.69,0,0,1,3.22,21.08c-1.29,18.29-9.14,32.87-24.56,43.07a59.4,59.4,0,0,1-22,9.16,57.27,57.27,0,0,1-13.66.42,51.14,51.14,0,0,1-15.87-3.49A61,61,0,0,1,15,94.75C14.18,94,13.39,93.28,12.56,92.51Zm83-32.18a18.22,18.22,0,0,0,3.69-1c1.72-.47,3.43-1,5.14-1.54a49.85,49.85,0,0,0-5.3-2.23c-.35-.14-.54,0-.71.3l-2.85,4.39-.08.11ZM71.2,31.55a1.3,1.3,0,0,0,.84-.18c3.5-1.46,7-2.91,10.5-4.38.24-.1.57-.1.71-.52L74.76,25.4a.82.82,0,0,0-1,.49c-.85,1.89-1.87,3.71-2.57,5.67l0,.07Zm6.66,34.1c.92-.25,1.84-.47,2.75-.74,2.94-.86,5.87-1.76,8.82-2.6.7-.2.91-.42.44-1.08-.65-.93-1.23-1.91-1.83-2.87-.24-.38-.46-.64-.94-.26C84,60.58,80.86,63,77.73,65.51l-.21.17C77.65,65.81,77.75,65.74,77.86,65.65Zm-1.15-2.92c3.11-2.18,6-4.63,9-6.93.39-.3.32-.58.09-.93-.7-1.07-1.4-2.14-2-3.24-.41-.69-.66-.6-1,0-1.31,2.37-2.67,4.7-4,7.07a28.13,28.13,0,0,0-2.11,3.94l-.08.14Zm4.75-21.46.15.09v-.24c-.85-3-1.71-6-2.55-9-.13-.44-.36-.6-.81-.41l-6.37,2.65c-.48.2-.56.43-.08.73ZM86.81,45a2,2,0,0,0,.42-.11l13.16-6.16c.17-.08.46-.1.41-.49l-9-1.18a.8.8,0,0,0-.93.39c-1.35,2.5-2.9,4.88-4.12,7.45l0,.17ZM53.23,41.88a.86.86,0,0,0-.21,0L44.8,44.06c-.59.16-.53.61-.54,1-.1,3.5-.21,7-.31,10.49a.94.94,0,0,0,.25.89c1-1.58,2-3.11,2.9-4.66,2-3.33,4.21-6.56,6.11-10l0-.06Zm17.16-4.46-.15,0,.05.14c.08,3.07.57,6.1.8,9.15,0,.4,0,.92.7.84,3.41-.37,6.82-.72,10.22-1.1.36,0,.79-.06.91-.49s-.36-.66-.67-.86c-1.94-1.29-3.89-2.58-5.86-3.84S72.49,38.53,70.39,37.42ZM39.25,101.18a2.83,2.83,0,0,0,.31-.11Q48.38,95.54,57.2,90c.52-.32.54-.66.39-1.18-.54-1.82-1-3.65-1.57-5.47-.08-.27-.06-.68-.35-.75s-.52.32-.73.56q-4.87,5.48-9.75,11c-2,2.3-4,4.62-6,6.94a.91.91,0,0,0-.11.12C39.12,101.32,39.19,101.25,39.25,101.18ZM56,2.58A69.91,69.91,0,0,0,44.33,3.92C31.38,6.56,20.78,13,12.79,23.58c-.78,1-.78,1,.5,1.43l.31.11L52.93,37Q60,39.14,67,41.27c.6.18,1,.27.89-.6-.32-3-.6-6-.89-9q-.86-8.73-1.69-17.45-.48-4.9-.93-9.82a1.15,1.15,0,0,0-1.19-1.22A61.25,61.25,0,0,0,56,2.58ZM71.82,82c-.15-1.64-.29-3.27-.45-4.91q-.84-8.72-1.7-17.44c-.45-4.76-.91-9.53-1.35-14.29a1.31,1.31,0,0,0-1.09-1.28Q62.6,42.78,58,41.33a1.17,1.17,0,0,0-1.61.58q-9.26,15-18.57,29.89c-.71,1.15-.71,1.16.64,1.54l16.76,4.73L70.93,82.5C71.38,82.62,71.92,82.92,71.82,82Zm35.53-21.77c.07-.89-.69-.29-1.08-.18q-16,4.72-31.92,9.45c-.88.26-1,.7-.94,1.49Q74,76.8,74.52,82.58a1.27,1.27,0,0,0,1.09,1.26q9.24,2.56,18.44,5.21a1.08,1.08,0,0,0,1.32-.39C102.25,80.52,106.05,71.07,107.35,60.26ZM19.69,95a50.2,50.2,0,0,0,13,8.2c.61.27.94,0,1.31-.39Q43.56,92,53.18,81.14c.71-.8.12-.84-.43-1-5.06-1.42-10.11-2.87-15.18-4.27-1.72-.47-3.4-1.24-5.2-1.26-5.52,0-11,0-16.56,0-.79,0-1,.27-1,1,0,2.42,0,4.83,0,7.24,0,.94.32,1.15,1.2,1.16,6.79,0,13.59.15,20.38.21.79,0,1.1.17,1.08,1-.05,2.93,0,5.86,0,8.78,0,.78-.25,1-1,1-3.18,0-6.36,0-9.54,0Zm55.1-1.48a.76.76,0,0,0-.27-.68l-7.33-8.3a1.67,1.67,0,0,0-.81-.53c-2.36-.65-4.72-1.29-7.06-2-.88-.26-.92,0-.72.77C59.78,86.83,61,90.9,62.06,95c.24.86.65,1,1.42.8,1.78-.39,3.58-.72,5.37-1.08ZM38.1,105.15c3.44,1.52,14.28,3.06,17.45,2.57.83-.13.37-.51.18-.8-1.79-2.85-3.6-5.68-5.37-8.53-.38-.61-.71-.54-1.23-.2-1.22.81-2.47,1.56-3.7,2.34ZM94.79,25a2,2,0,0,0-.51,0c-4.07,1.68-8.15,3.38-12.23,5.05-.58.24-.64.61-.48,1.13.29.94.55,1.89.82,2.84.81,2.76,1.61,5.52,2.48,8.5C88.22,36.61,91.46,30.89,94.79,25ZM30.48,56l-.12-.23h-15c-.58,0-.76.23-.76.78,0,1.86,0,3.72,0,5.59,0,.69.26.87.9.86A27.2,27.2,0,0,1,19,63a6.47,6.47,0,0,0,6.1-2.13C26.73,59.09,28.68,57.58,30.48,56ZM60,107.57c.8-.1,1.27-.2,1.74-.21.93,0,1-.42.79-1.26q-1.86-6.34-3.62-12.74c-.22-.8-.5-1-1.26-.51-1.48,1-3,1.94-4.54,2.84-.74.44-.81.81-.34,1.54,2,3.15,4,6.33,6,9.52C59.16,107.35,59.57,107.69,60,107.57Zm44.2-52.92.16-.25a4.12,4.12,0,0,0-.27-.45c-2.61-3.19-5.24-6.37-7.83-9.58-.44-.55-.83-.41-1.31-.18-2,1-4.1,1.92-6.14,2.9a6.46,6.46,0,0,0-2,1.08ZM10.71,27c-.4,0-.52.32-.67.58-.72,1.23-1.38,2.49-2.13,3.7-.4.65-.14.95.41,1.27,1.95,1.16,3.89,2.32,5.8,3.52a1,1,0,0,0,1.49-.18q2.28-2.58,4.66-5.08c.59-.62.42-.82-.31-1-2.87-.84-5.73-1.72-8.58-2.59ZM80.57,11.46c-1.75,3.71-3.37,7.19-5,10.65-.28.57,0,.69.48.75l9.55,1.24c.69.09.87-.16.55-.8-.55-1.11-1.06-2.25-1.59-3.37Zm-7.84,52.1H73q3.8-6.72,7.62-13.44c.41-.73.15-.9-.56-.83-2.62.29-5.23.58-7.85.83-.73.07-.77.44-.69,1,.15,1.23.25,2.47.38,3.71Q72.29,59.21,72.73,63.56ZM67.63,4c2.47,4.55,4.8,8.83,7.24,13.29,1.42-3,2.74-5.86,4.08-8.69.28-.59-.08-.8-.51-1C77,7.06,75.56,6.42,74.09,5.88A38.74,38.74,0,0,0,67.63,4Zm35.63,31.8c.89.16.54-.39.4-.75a56.35,56.35,0,0,0-4.93-9.74c-.42-.67-.68-.73-1.09,0Q95.36,29.47,93,33.54c-.4.69-.27,1,.5,1.06ZM26.56,63.09l1.05.07c2.29.07,4.59,0,6.88.17a27.89,27.89,0,0,0,4.92-.08c1.09-.13,1.27-1.11,1.63-1.86s-.38-.93-.79-1.24c-1.67-1.29-3.37-2.56-5.06-3.83-.32-.25-.59-.49-1-.09C31.71,58.46,29.24,60.67,26.56,63.09Zm80.87-9.23c.13-.17.17-.2.17-.22A42.76,42.76,0,0,0,105.37,40c-.14-.49-.41-.51-.82-.31-1.87.89-3.75,1.78-5.64,2.65-.5.24-.55.48-.19.9.8.94,1.57,1.91,2.36,2.87ZM77.9,101.79c-.05-.06-.09-.14-.15-.15L64.09,99.16c-.74-.14-.77.18-.59.78.55,1.89,1.11,3.78,1.58,5.69.23.91.61,1,1.47.79a66.44,66.44,0,0,0,10.8-4.18C77.56,102.14,77.84,102.09,77.9,101.79ZM90.78,93,69.85,97.22l0,.28A57.58,57.58,0,0,1,77.66,99c3.64,1.19,6.4,0,9-2.3A27.08,27.08,0,0,0,90.78,93Zm-85-49.09H7.62a1.26,1.26,0,0,0,1-.48c1.27-1.4,2.54-2.81,3.85-4.18.5-.52.43-.8-.17-1.15-1.69-1-3.39-2-5-3.07-.71-.46-1-.38-1.35.41a66.53,66.53,0,0,0-2.49,7.11c-.37,1.36-.37,1.36,1.09,1.36ZM71.89,85.55l-.1.16c2,2.26,4,4.51,6,6.77.36.4.78.29,1.21.2l9.43-1.9a8,8,0,0,0,.89-.32ZM26.83,32c0,.12,0,.2,0,.26l6.67,10c.49.72.66.17.85-.21,1-2,1.92-4.1,2.94-6.12.37-.72.09-.92-.55-1.11-2.72-.8-5.44-1.64-8.17-2.44A4,4,0,0,0,26.83,32Zm24.38,7.48,0-.23c-3.38-1-6.77-2-10.15-3.09-.66-.21-1,0-1.26.64-.87,1.89-1.78,3.76-2.67,5.64a1.16,1.16,0,0,0-.18,1Zm-20.1,4.25c0-.12,0-.16,0-.19-2.52-3.8-5.06-7.6-7.58-11.41-.35-.52-.61-.34-.93,0-.86,1-1.68,1.93-2.6,2.82-.61.58-.46.88.11,1.33,2.74,2.19,5.49,4.38,8.16,6.65A3,3,0,0,0,31.11,43.77Zm38.21-15.3a1,1,0,0,0,.61-.68C71,25.55,72,23.3,73.11,21.07a1.44,1.44,0,0,0-.06-1.52c-1.61-2.9-3.17-5.82-4.76-8.73-.13-.23-.17-.58-.71-.6C68.16,16.28,68.73,22.32,69.32,28.47Zm-28.12,29c.14-4.14.27-8,.41-11.8,0-.59-.18-.71-.7-.56-.91.27-1.82.53-2.74.75a.86.86,0,0,0-.75,1c0,2.38,0,4.75,0,7.13a1,1,0,0,0,.32.88C38.83,55.71,39.89,56.52,41.2,57.51ZM24.72,43.81l.11-.23C22.54,41.72,20.25,39.87,18,38a.46.46,0,0,0-.74,0L12,43.81ZM86.75,18c.12.57,2.29,5.41,2.51,5.77s.53.26.83.13c.88-.36,1.78-.68,2.63-1.1s2.68-.54,2.85-1.47-1.23-1.75-2-2.59c-.28-.32-.53-.73-1-.73Zm.17,33.12-.19.25L92,59.64c.35.55.55.22.77-.11,1-1.46,1.94-2.93,2.94-4.37.41-.59.16-.79-.39-1-1.79-.64-3.56-1.32-5.34-2C89,51.81,87.94,51.45,86.92,51.08Zm3.24-35.75a33.39,33.39,0,0,0-7-4.94c.61,1.56,1.3,3,2,4.53a.62.62,0,0,0,.58.41ZM35.24,70.39l.25.07c.56-.88,1.15-1.75,1.66-2.66.31-.55,1.11-1.13.76-1.65s-1.22-.09-1.86-.14-.83.12-.82.71C35.26,68,35.24,69.17,35.24,70.39Z"/></g></g></g></g></svg>